<?xml version="1.0" encoding="UTF-8" standalone="no"?>
<!DOCTYPE svg PUBLIC "-//W3C//DTD SVG 1.1//EN" "http://www.w3.org/Graphics/SVG/1.1/DTD/svg11.dtd">
<svg width="100%" height="100%" viewBox="0 0 282 282" version="1.1" xmlns="http://www.w3.org/2000/svg" xmlns:xlink="http://www.w3.org/1999/xlink" xml:space="preserve" xmlns:serif="http://www.serif.com/" style="fill-rule:evenodd;clip-rule:evenodd;stroke-linejoin:round;stroke-miterlimit:2;">
    <g transform="matrix(0.812201,0,0,0.866607,34.0771,24.0775)">
        <g id="Layer_2">
            <path d="M243.773,60.722C242.297,63.519 239.244,65.296 235.916,65.296C233.504,65.296 231.196,64.363 229.54,62.719L203.808,62.719L179.183,92.536L220.909,217.379C223.096,218.936 224.382,221.366 224.382,223.939C224.382,228.459 220.413,232.178 215.591,232.178C210.768,232.178 206.8,228.459 206.8,223.939C206.8,222.664 207.116,221.406 207.723,220.264L207.859,220.033L186.928,157.283L173.963,183.385L169.395,180.834C156.27,173.507 140.03,168.384 129.811,168.384C126.118,168.384 117.499,168.949 117.499,174.153C117.499,180.061 126.413,182.923 141.102,186.916C159.459,191.912 183.936,198.593 188.479,221.799C191.446,223.296 193.303,226.21 193.303,229.368C193.303,234.084 189.162,237.965 184.13,237.965C179.098,237.965 174.958,234.084 174.958,229.368C174.958,226.603 176.381,224.001 178.777,222.387C174.689,205.459 156.295,200.463 138.418,195.57C122.707,191.289 107.883,187.25 107.883,174.153C107.883,163.237 119.235,159.348 129.861,159.348C140.486,159.348 156.086,163.756 169.74,170.553L177.509,154.917C166.28,149.064 153.871,145.468 141.077,144.359C139.359,146.433 136.71,147.648 133.909,147.648C128.931,147.648 124.835,143.809 124.835,139.144C124.835,138.144 125.023,137.151 125.391,136.212L98.378,103.464L76.241,169.699C77.536,169.067 78.975,168.736 80.435,168.736C85.413,168.736 89.509,172.575 89.509,177.241C89.509,179.99 88.087,182.575 85.697,184.169C89.747,200.682 107.969,205.448 125.674,210.075C140.966,214.068 156.787,218.152 156.787,231.688C156.787,242.073 147.492,248.304 131.917,248.304C117.561,248.304 99.683,241.866 85.746,231.919L77.952,246.92C90.653,255.818 105.64,261.416 121.39,263.144C123.11,261.108 125.733,259.919 128.504,259.919C133.482,259.919 137.578,263.758 137.578,268.423C137.578,273.089 133.482,276.928 128.504,276.928C126.1,276.928 123.792,276.033 122.092,274.441C121.371,273.77 120.775,272.99 120.331,272.133C101.395,269.929 82.742,262.625 68.854,251.57L65.997,249.262L82.569,217.46L87.322,221.464C99.93,231.965 118.287,239.304 131.954,239.304C137.654,239.304 147.196,238.312 147.196,231.7C147.196,225.503 138.097,222.687 123.113,218.764C104.818,213.987 80.415,207.617 75.97,184.654C74.451,183.847 73.215,182.645 72.412,181.192L58.548,222.734C58.887,223.623 59.06,224.56 59.06,225.505C59.06,230.024 55.092,233.744 50.269,233.744C45.447,233.744 41.478,230.024 41.478,225.505C41.478,222.474 43.263,219.678 46.113,218.245L88.43,91.451L63.682,61.449L33.357,61.449C31.732,62.872 29.589,63.664 27.365,63.664C22.549,63.664 18.587,59.95 18.587,55.437C18.587,50.923 22.549,47.209 27.365,47.209C29.344,47.209 31.265,47.836 32.816,48.987L70.183,48.987L134.207,126.681L197.258,50.233L230.944,50.233C232.406,49.293 234.138,48.79 235.91,48.79C240.726,48.79 244.689,52.504 244.689,57.017C244.689,58.296 244.371,59.556 243.761,60.699L243.773,60.722ZM143.7,135.635C157.857,137.093 171.529,141.327 183.825,148.063L169.321,104.572L143.7,135.635ZM75.096,11.311L107.428,11.311C107.448,1.253 116.284,-7.013 127.016,-7.013L144.648,-7.013C155.394,-7.013 164.236,1.275 164.236,11.346L196.568,11.346L208.326,22.366L201.604,22.366L181.658,62.753L90.006,62.753L70.085,22.32L63.338,22.32L75.096,11.311ZM133.21,29.67L113.621,29.67L113.621,48.029L133.21,48.029L133.21,29.67ZM108.4,29.67L88.812,29.67L88.812,48.029L108.4,48.029L108.4,29.67ZM182.852,29.67L163.264,29.67L163.264,48.029L182.852,48.029L182.852,29.67ZM158.031,29.67L138.442,29.67L138.442,48.029L158.031,48.029L158.031,29.67Z" style="fill:rgb(235,235,235);"/>
        </g>
    </g>
</svg>
